<svg xmlns="http://www.w3.org/2000/svg" width="1024" height="1024" viewBox="0 0 1024 1024">
<g>
<path d="M 352.73,987.73 C342.61,984.42 338.04,977.05 338.04,964.00 C338.04,954.00 339.85,949.10 345.28,944.33 C354.15,936.54 371.50,937.85 377.12,946.73 L 379.16,949.93 L 375.83,951.96 C371.69,954.49 371.33,954.49 369.95,951.92 C367.06,946.50 356.38,945.86 351.74,950.82 C348.51,954.27 347.77,956.85 347.81,964.54 C347.87,975.25 351.79,980.02 360.47,979.97 C366.07,979.93 367.85,978.94 370.68,974.28 L 372.62,971.09 L 375.81,973.03 C377.57,974.10 379.00,975.59 379.00,976.34 C379.00,978.70 374.63,984.31 371.24,986.29 C367.21,988.64 357.77,989.38 352.73,987.73 M 388.00,964.00 L 388.00,940.00 L 404.00,940.00 L 420.00,940.00 L 420.00,944.00 L 420.00,948.00 L 409.00,948.00 L 398.00,948.00 L 398.00,953.50 L 398.00,959.00 L 407.50,959.00 L 417.00,959.00 L 417.00,963.00 L 417.00,967.00 L 407.50,967.00 L 398.00,967.00 L 398.00,973.50 L 398.00,980.00 L 409.50,980.00 L 421.00,980.00 L 421.00,984.00 L 421.00,988.00 L 404.50,988.00 L 388.00,988.00 L 388.00,964.00 M 430.00,964.00 L 430.00,940.00 L 442.60,940.00 C456.68,940.00 460.43,941.07 463.29,945.92 C465.45,949.57 465.49,955.85 463.38,958.86 C462.49,960.13 460.38,962.01 458.69,963.04 C456.09,964.62 455.88,965.02 457.34,965.58 C459.57,966.43 461.72,970.65 464.65,979.89 C465.94,983.95 467.00,987.44 467.00,987.64 C467.00,987.84 464.83,988.00 462.18,988.00 L 457.35,988.00 L 454.95,980.35 C451.70,969.97 450.02,968.00 444.43,968.00 L 440.00,968.00 L 440.00,978.00 L 440.00,988.00 L 435.00,988.00 L 430.00,988.00 L 430.00,964.00 M 454.44,957.78 C456.64,954.65 456.38,952.29 453.55,949.45 C451.53,947.44 450.10,947.00 445.55,947.00 L 440.00,947.00 L 440.00,953.50 L 440.00,960.00 L 446.44,960.00 C451.97,960.00 453.11,959.68 454.44,957.78 M 485.00,968.05 L 485.00,948.09 L 478.25,947.80 L 471.50,947.50 L 471.19,943.75 L 470.88,940.00 L 489.94,940.00 L 509.00,940.00 L 509.00,944.00 L 509.00,948.00 L 502.00,948.00 L 495.00,948.00 L 495.00,968.00 L 495.00,988.00 L 490.00,988.00 L 485.00,988.00 L 485.00,968.05 M 517.00,964.00 L 517.00,940.00 L 522.00,940.00 L 527.00,940.00 L 527.00,964.00 L 527.00,988.00 L 522.00,988.00 L 517.00,988.00 L 517.00,964.00 M 540.00,964.00 L 540.00,940.00 L 555.50,940.00 L 571.00,940.00 L 571.00,944.00 L 571.00,948.00 L 560.50,948.00 L 550.00,948.00 L 550.00,954.25 L 550.00,960.50 L 559.25,960.50 L 568.50,960.50 L 568.81,964.25 L 569.12,968.00 L 559.56,968.00 L 550.00,968.00 L 550.00,978.00 L 550.00,988.00 L 545.00,988.00 L 540.00,988.00 L 540.00,964.00 M 580.00,964.00 L 580.00,940.00 L 584.50,940.00 L 589.00,940.00 L 589.00,964.00 L 589.00,988.00 L 584.50,988.00 L 580.00,988.00 L 580.00,964.00 M 603.00,964.00 L 603.00,940.00 L 619.00,940.00 L 635.00,940.00 L 635.00,944.00 L 635.00,948.00 L 623.50,948.00 L 612.00,948.00 L 612.00,953.50 L 612.00,959.00 L 622.00,959.00 L 632.00,959.00 L 632.00,963.00 L 632.00,967.00 L 622.00,967.00 L 612.00,967.00 L 612.00,973.50 L 612.00,980.00 L 623.50,980.00 L 635.00,980.00 L 635.00,984.00 L 635.00,988.00 L 619.00,988.00 L 603.00,988.00 L 603.00,964.00 M 645.00,964.00 L 645.00,940.00 L 656.75,940.01 C663.21,940.01 670.29,940.51 672.48,941.12 C684.87,944.56 690.71,962.95 683.81,976.84 C679.56,985.41 673.19,987.99 656.25,987.99 L 645.00,988.00 L 645.00,964.00 M 669.47,978.58 C674.24,976.58 676.43,972.00 676.43,964.00 C676.43,952.49 672.12,948.00 661.05,948.00 L 655.00,948.00 L 655.00,964.00 L 655.00,980.00 L 660.53,980.00 C663.57,980.00 667.59,979.36 669.47,978.58 M 95.98,920.50 C95.97,920.23 95.95,909.31 95.94,896.25 L 95.91,872.50 L 100.46,872.20 L 105.00,871.89 L 105.00,896.45 L 105.00,921.00 L 100.50,921.00 C98.03,921.00 95.99,920.77 95.98,920.50 M 121.50,918.95 C119.30,917.87 116.72,916.05 115.77,914.90 C114.11,912.91 114.14,912.68 116.67,909.37 L 119.30,905.92 L 121.90,908.39 C129.26,915.41 141.00,914.37 141.00,906.69 C141.00,903.42 138.36,901.65 131.00,899.98 C119.82,897.44 116.00,893.75 116.00,885.50 C116.00,876.22 121.56,871.99 133.72,872.02 C138.88,872.03 141.44,872.57 144.42,874.27 C149.26,877.02 149.51,877.79 146.67,881.25 L 144.42,884.00 L 140.50,882.00 C133.30,878.33 125.00,880.22 125.00,885.53 C125.00,888.31 128.25,890.33 134.50,891.45 C141.22,892.64 146.80,895.63 148.97,899.18 C153.10,905.96 150.64,915.61 143.90,919.05 C138.63,921.74 127.06,921.69 121.50,918.95 M 171.00,919.88 C167.46,918.47 163.18,914.18 160.66,909.50 C157.76,904.12 157.61,889.35 160.40,884.00 C164.88,875.45 170.74,872.00 180.80,872.00 C189.87,872.00 195.34,874.77 199.50,881.50 C202.31,886.04 202.50,886.97 202.50,896.42 C202.50,905.64 202.26,906.90 199.72,911.22 C195.58,918.27 190.27,921.02 180.91,920.94 C176.84,920.90 172.38,920.43 171.00,919.88 M 187.13,911.43 C191.11,909.37 193.00,904.57 193.00,896.50 C193.00,884.57 188.49,879.23 179.27,880.27 C171.86,881.11 168.01,886.66 168.01,896.50 C168.01,909.67 176.98,916.68 187.13,911.43 M 234.31,919.10 C228.16,915.25 227.36,910.70 232.54,908.99 C235.82,907.90 236.22,908.01 238.11,910.41 C240.33,913.24 245.39,913.93 249.15,911.92 C251.63,910.59 254.00,905.17 254.00,900.85 L 254.00,897.63 L 251.05,900.46 C247.06,904.28 239.92,905.01 235.24,902.06 C230.34,898.99 228.01,894.45 228.01,888.00 C228.01,877.63 233.91,872.01 244.82,872.00 C258.55,872.00 264.66,880.31 263.82,897.87 C263.34,907.98 260.65,914.68 255.66,918.24 C251.13,921.48 238.89,921.97 234.31,919.10 M 250.37,893.93 C252.40,892.32 253.00,890.98 253.00,887.97 C253.00,883.14 250.01,880.00 245.42,880.00 C240.46,880.00 237.55,882.96 237.55,888.00 C237.55,891.21 238.10,892.66 239.88,894.11 C242.94,896.58 247.08,896.51 250.37,893.93 M 282.23,918.92 C280.42,917.74 277.72,914.69 276.23,912.14 C273.72,907.88 273.50,906.63 273.50,896.98 C273.50,887.65 273.79,885.89 276.06,881.48 C279.47,874.84 284.35,872.04 292.50,872.02 C302.11,872.00 307.73,876.31 310.61,885.92 C314.12,897.59 310.77,913.17 303.66,918.24 C298.99,921.57 286.85,921.96 282.23,918.92 M 298.99,910.51 C300.93,908.45 301.41,906.65 301.79,900.08 C302.37,890.05 301.50,885.41 298.48,882.39 C295.49,879.40 290.26,879.22 286.74,881.99 C281.46,886.14 281.07,905.25 286.15,910.66 C289.29,914.00 295.78,913.93 298.99,910.51 M 329.86,918.60 C327.81,917.18 325.18,913.97 323.86,911.29 C321.86,907.22 321.50,904.99 321.50,896.47 C321.50,887.68 321.81,885.84 324.06,881.47 C327.47,874.84 332.35,872.03 340.50,872.03 C348.65,872.03 353.53,874.84 356.94,881.47 C359.19,885.84 359.50,887.68 359.50,896.47 C359.50,904.96 359.14,907.23 357.16,911.24 C353.69,918.29 350.07,920.43 341.00,920.81 C334.33,921.09 333.10,920.84 329.86,918.60 M 347.72,909.10 C349.67,906.20 350.00,904.41 350.00,896.80 C350.00,884.54 347.43,880.00 340.50,880.00 C333.62,880.00 331.00,884.56 331.00,896.52 C331.00,909.04 333.58,913.28 340.91,912.80 C344.79,912.54 345.76,912.01 347.72,909.10 M 367.00,917.00 L 367.00,913.00 L 373.00,913.00 L 379.00,913.00 L 379.00,897.88 L 379.00,882.77 L 376.75,883.42 C375.51,883.78 373.04,884.34 371.25,884.67 C368.02,885.26 368.00,885.23 368.00,881.24 C368.00,877.68 368.32,877.14 370.75,876.55 C372.26,876.18 375.39,874.98 377.70,873.87 C380.07,872.74 383.35,872.00 385.20,872.18 L 388.50,872.50 L 388.77,892.75 L 389.04,913.00 L 394.02,913.00 L 399.00,913.00 L 399.00,917.00 L 399.00,921.00 L 383.00,921.00 L 367.00,921.00 L 367.00,917.00 M 422.33,918.38 C420.80,916.04 420.77,915.49 422.09,913.13 C424.87,908.16 433.00,909.92 433.00,915.50 C433.00,920.88 425.33,922.95 422.33,918.38 M 456.21,915.46 C456.75,908.96 458.52,906.23 466.09,900.20 C477.48,891.13 479.00,889.50 479.00,886.33 C479.00,882.45 476.25,880.00 471.92,880.00 C468.37,880.01 462.00,883.21 462.00,884.99 C462.00,886.93 460.12,885.98 457.95,882.94 L 455.77,879.87 L 458.14,877.34 C461.85,873.37 465.41,872.00 472.05,872.00 C483.07,872.00 488.00,876.20 488.00,885.58 C488.00,891.82 485.47,895.67 477.81,901.10 C469.82,906.75 465.70,910.71 466.49,911.99 C466.85,912.57 471.60,913.00 477.56,913.00 L 488.00,913.00 L 488.00,917.00 L 488.00,921.00 L 471.88,921.00 L 455.75,921.00 L 456.21,915.46 M 505.92,918.73 C500.93,915.36 498.31,910.78 497.03,903.16 C496.16,898.02 496.16,894.72 497.04,889.67 C499.15,877.58 505.03,872.00 515.70,872.00 C529.24,872.00 535.26,879.54 535.26,896.50 C535.26,913.46 529.24,921.00 515.70,921.00 C510.69,921.00 508.56,920.50 505.92,918.73 M 520.93,912.04 C523.91,910.44 525.50,905.03 525.50,896.50 C525.50,887.97 523.91,882.56 520.93,880.96 C518.61,879.72 513.38,879.73 511.05,880.97 C508.26,882.47 506.00,889.36 506.00,896.37 C506.00,903.77 507.43,908.80 510.22,911.25 C512.40,913.15 518.06,913.57 520.93,912.04 M 543.00,917.08 L 543.00,913.10 L 548.75,912.80 L 554.50,912.50 L 554.78,897.63 L 555.05,882.75 L 552.78,883.43 C551.52,883.80 548.78,884.37 546.68,884.69 L 542.86,885.28 L 543.18,881.58 C543.48,878.10 543.86,877.73 549.50,875.31 C552.80,873.89 557.41,872.52 559.75,872.26 L 564.00,871.80 L 564.00,892.35 L 564.00,912.90 L 569.19,913.20 L 574.37,913.50 L 574.37,917.00 L 574.37,920.50 L 558.68,920.78 L 543.00,921.05 L 543.00,917.08 M 586.30,919.04 C583.43,917.29 580.00,912.50 580.00,910.25 C580.00,909.78 581.59,908.83 583.53,908.13 C586.90,906.91 587.18,906.98 589.93,909.92 C592.20,912.35 593.63,913.00 596.75,913.00 C602.89,913.00 606.14,907.58 603.88,901.10 C601.92,895.47 595.69,894.22 591.32,898.59 C589.19,900.72 588.15,901.06 585.34,900.54 L 581.94,899.90 L 582.22,886.20 L 582.50,872.50 L 596.75,872.22 L 611.00,871.95 L 611.00,875.97 L 611.00,880.00 L 601.14,880.00 L 591.28,880.00 L 590.61,885.64 C590.25,888.74 590.15,891.48 590.39,891.72 C590.63,891.96 592.04,891.36 593.53,890.39 C596.96,888.14 604.80,888.17 608.27,890.44 C611.87,892.80 614.00,897.90 614.00,904.15 C614.00,910.72 611.64,915.70 607.10,918.73 C602.51,921.80 591.10,921.97 586.30,919.04 M 643.90,918.73 C635.07,912.83 635.12,900.54 644.00,895.15 L 646.89,893.39 L 644.95,890.44 C643.79,888.67 643.01,885.77 643.01,883.15 C643.00,879.53 643.57,878.23 646.40,875.40 C649.51,872.29 650.31,872.00 655.82,872.00 C660.78,872.00 662.37,872.44 664.79,874.48 C670.53,879.30 669.39,888.07 662.49,892.14 C660.30,893.43 659.09,894.80 659.41,895.63 C660.22,897.72 666.40,905.92 667.22,905.96 C667.61,905.98 668.23,903.75 668.59,901.00 L 669.26,896.00 L 673.19,896.00 L 677.12,896.00 L 676.44,900.75 C676.06,903.36 675.14,907.01 674.38,908.86 C672.85,912.62 673.26,914.00 675.94,914.00 C677.62,914.00 678.95,916.52 678.99,919.75 C679.01,921.60 671.04,921.34 668.92,919.43 C667.34,918.00 666.91,918.00 664.14,919.43 C659.29,921.93 648.12,921.55 643.90,918.73 M 660.84,912.44 C661.37,912.00 650.74,899.00 649.86,899.00 C647.27,899.00 646.08,907.36 648.25,910.33 C650.29,913.12 658.39,914.48 660.84,912.44 M 658.42,887.09 C659.44,885.96 660.02,884.02 659.82,882.34 C659.55,879.96 658.98,879.45 656.32,879.19 C651.43,878.72 649.81,883.27 653.28,887.75 C654.65,889.53 656.42,889.30 658.42,887.09 M 704.00,896.50 L 704.00,872.00 L 715.48,872.00 C728.78,872.00 734.21,873.56 736.54,878.07 C738.98,882.79 738.42,887.74 735.07,891.09 L 732.14,894.02 L 734.82,895.41 C739.80,897.98 741.43,900.69 741.43,906.41 C741.43,917.63 735.81,920.95 716.75,920.98 L 704.00,921.00 L 704.00,896.50 M 730.00,911.00 C731.11,909.89 732.00,907.67 732.00,906.00 C732.00,900.77 729.09,899.00 720.50,899.00 L 713.00,899.00 L 713.00,906.00 L 713.00,913.00 L 720.50,913.00 C726.67,913.00 728.36,912.64 730.00,911.00 M 726.00,890.71 C727.71,889.85 728.60,888.48 728.80,886.35 C729.27,881.55 726.98,880.00 719.43,880.00 L 713.00,880.00 L 713.00,885.33 C713.00,888.27 713.30,890.97 713.67,891.33 C714.80,892.47 723.37,892.04 726.00,890.71 M 752.00,896.50 L 752.00,872.00 L 756.50,872.00 L 761.00,872.00 L 761.00,896.50 L 761.00,921.00 L 756.50,921.00 L 752.00,921.00 L 752.00,896.50 M 774.92,920.58 C774.69,920.36 774.63,909.33 774.78,896.08 L 775.07,872.00 L 790.03,872.00 L 805.00,872.00 L 805.00,875.97 L 805.00,879.93 L 794.75,880.22 L 784.50,880.50 L 784.20,886.75 L 783.90,893.00 L 793.45,893.00 L 803.00,893.00 L 803.00,897.00 L 803.00,901.00 L 793.50,901.00 L 784.00,901.00 L 784.00,911.00 L 784.00,921.00 L 779.67,921.00 C777.28,921.00 775.15,920.81 774.92,920.58 M 814.45,919.73 C814.18,919.03 814.08,908.12 814.23,895.48 L 814.50,872.50 L 820.75,872.20 C824.19,872.04 827.00,872.08 827.00,872.30 C827.00,873.21 838.97,907.31 839.46,907.80 C839.76,908.09 840.00,908.13 840.00,907.89 C840.00,907.65 842.70,899.60 846.00,890.00 C849.30,880.40 852.00,872.43 852.00,872.28 C852.00,872.12 854.70,872.00 858.00,872.00 L 864.00,872.00 L 864.00,896.50 L 864.00,921.00 L 859.50,921.00 L 855.00,921.00 L 855.00,904.83 C855.00,895.94 854.77,888.90 854.49,889.18 C854.21,889.46 851.59,896.62 848.67,905.09 L 843.35,920.50 L 839.33,920.80 L 835.31,921.10 L 830.01,905.80 C827.10,897.39 824.33,890.07 823.86,889.55 C823.38,889.02 823.00,895.68 823.00,904.80 L 823.00,921.00 L 818.97,921.00 C816.63,921.00 814.73,920.47 814.45,919.73 M 872.00,920.65 C872.00,920.45 874.51,913.14 877.58,904.40 C880.65,895.65 884.37,884.90 885.84,880.50 L 888.52,872.50 L 894.76,872.20 C898.19,872.04 901.00,872.05 901.00,872.23 C901.00,872.57 913.65,909.19 916.38,916.75 L 917.91,921.00 L 912.93,921.00 C908.43,921.00 907.85,920.74 906.87,918.25 C906.28,916.74 905.16,914.02 904.39,912.21 L 903.00,908.92 L 894.25,909.21 L 885.50,909.50 L 883.68,915.25 L 881.86,921.00 L 876.93,921.00 C874.22,921.00 872.00,920.84 872.00,920.65 M 901.00,901.18 C901.00,900.72 899.87,897.01 898.49,892.93 C894.66,881.58 895.01,882.25 893.97,884.09 C892.40,886.89 888.22,900.89 888.79,901.45 C889.67,902.34 901.00,902.08 901.00,901.18 M 423.00,893.00 C420.59,890.59 420.50,889.16 422.56,886.22 C425.54,881.97 433.00,884.43 433.00,889.67 C433.00,892.24 429.98,895.00 427.17,895.00 C425.98,895.00 424.10,894.10 423.00,893.00 M 347.00,835.00 L 347.00,832.00 L 174.00,832.00 C59.33,832.00 1.00,831.66 1.00,831.00 C1.00,830.34 59.33,830.00 174.00,830.00 L 347.00,830.00 L 347.00,827.00 L 347.00,824.00 L 512.00,824.00 L 677.00,824.00 L 677.00,827.00 L 677.00,830.00 L 850.00,830.00 C964.67,830.00 1023.00,830.34 1023.00,831.00 C1023.00,831.66 964.67,832.00 850.00,832.00 L 677.00,832.00 L 677.00,835.00 L 677.00,838.00 L 512.00,838.00 L 347.00,838.00 L 347.00,835.00 M 324.13,786.98 C308.32,783.65 298.16,771.64 297.23,755.19 C296.88,749.10 297.24,746.16 298.96,741.08 C305.88,720.64 324.04,710.65 348.36,713.89 C353.39,714.55 357.91,715.51 358.42,716.02 C359.67,717.27 357.03,733.73 355.35,735.12 C352.98,737.09 351.00,735.33 351.00,731.25 C351.00,729.16 350.32,726.48 349.50,725.30 C346.81,721.46 336.47,719.35 328.51,721.00 C320.71,722.62 315.81,726.60 311.93,734.50 C309.00,740.44 308.67,742.02 308.67,749.86 C308.67,757.24 309.09,759.52 311.39,764.55 C316.33,775.38 324.38,781.00 334.94,781.00 C343.77,781.00 348.87,777.63 352.59,769.33 C354.70,764.62 358.11,761.78 359.72,763.39 C360.66,764.33 357.81,781.91 356.55,782.96 C352.75,786.11 332.14,788.67 324.13,786.98 M 640.00,786.25 C637.30,784.90 635.09,782.10 630.34,774.00 C626.96,768.23 623.35,762.16 622.34,760.52 C620.05,756.83 616.01,755.26 612.25,756.58 C609.56,757.52 609.49,757.73 609.21,766.52 C608.81,778.57 609.17,779.67 614.01,781.12 C618.33,782.42 619.14,784.32 616.07,785.96 C613.29,787.45 591.71,787.31 590.20,785.80 C588.25,783.85 588.73,783.27 594.50,780.63 L 600.00,778.11 L 600.00,750.56 C600.00,735.40 600.04,722.66 600.10,722.25 C600.15,721.84 598.16,720.83 595.67,720.00 C589.88,718.08 589.04,717.17 591.44,715.42 C592.94,714.32 597.31,714.00 610.58,714.00 C630.43,714.00 635.84,715.18 641.15,720.65 C644.08,723.68 644.48,724.77 644.81,730.77 C645.17,737.05 644.97,737.83 641.85,742.44 C640.01,745.16 636.39,748.76 633.80,750.44 C631.22,752.12 629.09,753.95 629.07,754.50 C629.00,756.46 644.73,778.18 647.57,780.05 C649.16,781.09 651.71,782.22 653.23,782.55 C657.17,783.42 656.66,785.72 652.25,786.95 C646.94,788.42 644.01,788.25 640.00,786.25 M 627.76,748.01 C637.76,741.91 637.32,726.95 626.98,721.75 C624.79,720.65 621.21,720.00 617.30,720.00 L 611.09,720.00 L 610.60,723.25 C609.33,731.65 609.02,747.32 610.11,748.63 C611.95,750.85 623.78,750.43 627.76,748.01 M 679.83,786.94 C676.71,786.47 672.49,785.40 670.46,784.55 C667.36,783.25 666.87,782.64 667.39,780.75 C667.73,779.51 668.30,775.22 668.65,771.22 C669.34,763.45 669.87,762.51 673.01,763.50 C674.61,764.01 675.00,765.02 675.00,768.62 C675.00,774.14 677.28,778.77 680.61,780.04 C682.00,780.57 686.10,781.00 689.73,781.00 C697.62,781.00 703.97,777.89 705.97,773.06 C707.05,770.47 706.95,769.53 705.30,766.35 C703.70,763.27 701.17,761.44 689.94,755.23 C670.87,744.70 668.42,741.99 669.22,732.33 C670.32,719.04 685.99,710.99 705.27,713.80 C709.73,714.45 713.84,715.44 714.39,715.99 C715.78,717.38 713.47,732.96 711.60,734.83 C709.68,736.75 708.00,735.47 708.00,732.09 C708.00,727.36 705.93,723.02 702.94,721.47 C698.88,719.37 689.72,719.59 685.21,721.90 C681.04,724.05 677.58,729.11 678.44,731.81 C679.64,735.58 686.98,741.14 699.50,747.74 C713.81,755.29 716.95,758.62 716.98,766.29 C717.04,780.34 699.78,789.94 679.83,786.94 M 377.15,785.68 C376.12,784.44 376.30,783.90 378.17,782.59 C379.42,781.72 380.94,781.00 381.53,781.00 C382.13,781.00 383.61,780.08 384.81,778.96 C386.96,776.96 387.00,776.42 387.00,749.66 C387.00,721.52 386.79,720.00 382.91,720.00 C380.63,720.00 376.29,716.38 377.33,715.34 C378.35,714.32 400.06,713.55 403.50,714.41 C407.17,715.33 406.55,717.45 402.02,719.49 C399.83,720.48 397.84,722.01 397.60,722.89 C397.35,723.78 397.00,729.45 396.82,735.50 L 396.50,746.50 L 410.55,746.78 C418.28,746.93 426.38,746.68 428.55,746.23 L 432.50,745.42 L 433.30,734.12 C434.19,721.51 433.88,720.58 428.50,719.57 C424.24,718.77 423.11,717.12 425.58,715.32 C428.39,713.26 452.50,713.87 452.50,715.99 C452.50,716.81 450.70,718.42 448.50,719.55 L 444.50,721.63 L 443.88,734.56 C442.88,755.14 442.52,778.86 443.19,779.52 C443.53,779.86 445.99,780.45 448.65,780.83 C452.55,781.39 453.50,781.91 453.50,783.47 C453.50,786.13 450.44,786.80 438.50,786.78 C427.60,786.76 422.64,786.05 422.56,784.50 C422.53,783.95 424.75,782.38 427.50,781.00 L 432.50,778.50 L 432.50,766.00 L 432.50,753.50 L 416.23,753.23 C406.14,753.05 399.21,753.35 397.98,754.01 C396.18,754.98 396.00,756.13 396.00,766.91 C396.00,775.17 396.38,779.07 397.25,779.78 C397.94,780.35 400.64,781.13 403.25,781.52 C408.35,782.28 408.94,782.97 406.35,785.13 C403.80,787.24 378.84,787.72 377.15,785.68 M 462.75,785.92 C460.12,784.39 460.63,782.66 464.29,780.69 C466.09,779.71 468.12,778.04 468.78,776.97 C470.10,774.87 481.29,747.22 488.00,729.50 C493.08,716.07 494.93,713.79 500.44,714.20 L 504.44,714.50 L 506.76,722.50 C513.76,746.55 523.37,775.74 524.83,777.38 C525.75,778.41 528.41,780.08 530.75,781.09 C539.73,784.97 534.05,787.16 515.98,786.78 C504.23,786.54 502.48,786.28 502.20,784.80 C501.95,783.50 503.19,782.71 507.42,781.48 C510.47,780.59 513.18,779.52 513.44,779.09 C513.71,778.67 512.70,774.53 511.20,769.91 L 508.48,761.50 L 497.89,761.22 C483.42,760.83 482.80,761.15 479.63,770.60 C476.50,779.89 476.88,780.66 485.09,781.59 C489.82,782.12 491.00,782.61 491.00,784.02 C491.00,784.99 490.29,786.06 489.42,786.39 C486.78,787.40 464.62,787.01 462.75,785.92 M 506.42,755.14 C507.04,754.12 499.26,729.10 497.73,727.21 C497.16,726.50 496.33,726.27 495.90,726.71 C494.42,728.20 484.95,754.11 485.53,755.05 C486.27,756.24 505.69,756.31 506.42,755.14 M 543.50,786.00 C542.52,784.42 543.76,783.20 548.39,781.15 C552.40,779.38 552.74,778.92 553.35,774.48 C553.71,771.86 554.00,758.79 554.00,745.43 C554.00,718.53 554.64,720.98 547.25,719.50 C543.73,718.79 542.69,715.72 545.58,714.61 C548.60,713.45 572.84,713.93 573.60,715.16 C574.48,716.59 570.49,720.00 567.92,720.00 C566.90,720.00 565.63,720.83 565.08,721.85 C564.52,722.90 563.96,735.90 563.80,752.10 L 563.50,780.50 L 569.75,781.39 C573.19,781.88 576.00,782.65 576.00,783.11 C576.00,783.57 574.67,784.64 573.05,785.47 C569.59,787.26 544.56,787.71 543.50,786.00 M 222.00,587.93 C222.00,552.30 222.39,524.13 222.90,523.18 C223.75,521.60 226.31,521.37 236.24,521.96 C236.65,521.98 237.10,547.54 237.24,578.75 L 237.50,635.50 L 508.50,635.50 L 779.50,635.50 L 779.76,578.75 L 780.02,522.00 L 787.01,522.00 L 794.00,522.00 L 794.00,586.50 L 794.00,651.00 L 508.00,651.00 L 222.00,651.00 L 222.00,587.93 M 431.00,456.98 C400.92,453.41 376.93,432.61 366.99,401.50 C363.98,392.07 363.12,370.75 365.33,360.36 C371.03,333.54 389.02,311.35 413.02,301.56 C416.58,300.10 423.77,298.18 429.00,297.29 C459.02,292.17 490.80,308.60 505.30,336.73 C513.03,351.75 514.50,358.02 514.50,376.00 C514.50,393.76 513.33,399.53 507.05,412.69 C492.67,442.85 462.07,460.68 431.00,456.98 M 451.47,448.47 C476.77,441.88 490.03,418.14 489.98,379.50 C489.92,336.04 475.01,309.43 448.15,304.82 C438.57,303.18 426.87,304.82 418.34,309.01 C405.97,315.09 396.05,329.70 391.81,348.10 C388.88,360.84 388.60,390.38 391.30,402.40 C397.00,427.76 408.54,442.90 426.50,448.60 C432.06,450.36 444.44,450.30 451.47,448.47 M 582.00,455.45 C566.18,452.05 549.91,444.61 542.92,437.58 C534.15,428.76 532.32,421.67 537.20,415.47 C541.82,409.60 546.58,410.27 554.04,417.85 C564.34,428.31 581.55,434.26 601.50,434.27 C619.44,434.28 631.31,430.52 639.20,422.34 C644.12,417.24 646.00,412.38 645.99,404.78 C645.98,399.69 645.43,397.54 643.07,393.43 C636.84,382.55 625.69,377.29 595.51,370.98 C566.59,364.93 546.32,353.02 539.66,338.17 C534.76,327.25 535.09,311.04 540.45,299.32 C545.90,287.43 558.16,277.36 573.29,272.34 C580.73,269.87 582.91,269.61 596.50,269.57 C608.85,269.54 613.07,269.93 620.38,271.78 C636.45,275.84 648.63,283.19 654.83,292.56 C658.32,297.83 658.78,301.58 656.49,306.02 C652.95,312.87 647.03,312.94 639.21,306.22 C627.26,295.96 616.02,292.00 598.79,292.00 C575.24,292.00 560.77,300.10 558.02,314.82 C555.55,328.04 562.15,338.15 577.11,344.04 C582.06,346.00 606.25,352.94 620.50,356.50 C638.62,361.03 655.92,372.95 662.08,385.16 C668.59,398.06 667.79,417.12 660.22,429.50 C649.78,446.56 626.31,457.12 599.29,456.92 C593.36,456.88 585.58,456.21 582.00,455.45 M 108.12,452.37 C102.94,448.75 103.00,449.67 103.00,369.68 L 103.00,295.29 L 94.16,294.62 C89.29,294.25 76.66,293.99 66.09,294.05 C49.93,294.12 46.47,293.88 44.39,292.52 C39.73,289.47 38.59,282.06 42.09,277.61 C46.66,271.81 44.16,272.00 115.23,272.00 C186.94,272.00 183.24,271.69 186.51,278.01 C188.41,281.69 188.40,285.32 186.49,289.02 C183.73,294.35 182.81,294.50 153.00,294.50 L 125.50,294.50 L 125.00,370.50 C124.63,427.32 124.19,447.03 123.29,448.61 C120.37,453.70 112.73,455.60 108.12,452.37 M 213.51,451.83 C207.84,447.37 208.00,449.90 208.00,363.00 C208.00,275.96 207.83,278.64 213.59,274.11 L 216.42,271.88 L 257.46,272.22 C297.18,272.56 298.73,272.64 305.50,274.88 C330.92,283.27 345.03,303.66 344.98,331.91 C344.94,354.23 337.13,370.32 321.63,380.00 C318.55,381.93 316.02,383.89 316.01,384.37 C316.01,384.84 318.49,387.92 321.52,391.20 C331.98,402.49 340.21,420.25 343.10,437.76 C344.50,446.27 343.52,449.67 338.85,452.43 C334.85,454.79 328.53,454.03 325.50,450.82 C324.11,449.35 322.33,444.65 320.64,438.00 C315.26,416.80 305.55,402.35 292.31,395.83 C286.56,393.00 284.53,392.56 274.82,392.06 C263.97,391.51 263.80,391.46 260.92,388.23 C258.79,385.85 258.00,383.95 258.00,381.21 C258.00,373.33 263.32,370.50 280.00,369.48 C293.74,368.64 299.27,367.43 306.27,363.74 C317.87,357.63 323.00,348.31 323.00,333.37 C323.00,328.55 322.31,322.45 321.43,319.42 C318.29,308.61 309.74,299.49 300.07,296.61 C293.66,294.71 263.38,293.54 244.69,294.47 L 230.00,295.21 L 230.00,370.56 C230.00,426.85 229.70,446.57 228.81,448.53 C226.36,453.90 218.35,455.63 213.51,451.83 M 744.40,450.60 L 741.00,447.20 L 741.00,371.17 L 741.00,295.14 L 713.07,294.82 C686.55,294.52 685.00,294.39 682.32,292.40 C678.84,289.82 676.68,283.96 677.96,280.60 C678.47,279.28 680.56,276.91 682.61,275.35 L 686.34,272.50 L 750.18,272.23 C820.09,271.93 816.70,271.67 823.25,277.80 C826.35,280.70 826.71,283.71 824.50,288.36 C821.64,294.38 821.18,294.47 790.75,294.83 L 763.00,295.16 L 762.94,368.83 C762.90,423.18 762.57,443.41 761.69,445.97 C760.28,450.08 754.94,454.00 750.75,454.00 C748.73,454.00 746.73,452.93 744.40,450.60 M 810.58,451.82 C806.19,448.05 806.57,444.49 812.80,431.00 C814.45,427.43 819.51,416.40 824.04,406.50 C846.47,357.50 873.43,299.14 878.90,287.77 C883.68,277.83 885.66,274.71 887.96,273.52 C891.95,271.46 897.31,271.58 899.30,273.78 C900.88,275.52 909.86,293.90 918.62,313.32 C921.06,318.72 926.47,330.42 930.64,339.32 C949.21,378.95 975.60,437.21 976.35,440.24 C977.14,443.43 975.17,448.83 972.09,451.91 C969.27,454.73 963.17,454.71 959.56,451.87 C958.07,450.70 955.69,447.21 954.27,444.12 C952.84,441.03 949.12,432.89 946.00,426.04 C938.13,408.78 939.44,409.49 915.68,409.55 C899.11,409.60 895.42,409.91 888.59,411.80 C867.62,417.62 852.25,426.86 824.87,450.08 C819.84,454.35 814.30,455.02 810.58,451.82 M 860.12,401.06 C878.08,392.50 898.04,388.06 918.75,388.02 C924.66,388.01 928.00,387.61 928.00,386.93 C928.00,386.34 921.30,371.37 913.11,353.68 C894.98,314.51 893.77,312.00 892.95,312.00 C892.59,312.00 889.79,317.29 886.71,323.75 C883.64,330.21 875.42,347.43 868.46,362.00 C861.49,376.57 854.26,391.71 852.39,395.63 C849.41,401.91 848.22,406.00 849.37,406.00 C849.58,406.00 854.41,403.78 860.12,401.06 M 950.62,309.53 C938.99,305.38 932.75,290.68 937.88,279.50 C944.74,264.54 964.18,261.45 974.89,273.61 C983.05,282.88 982.74,295.37 974.14,303.93 C967.38,310.66 959.24,312.60 950.62,309.53 M 966.75,304.88 C979.53,298.69 980.33,280.60 968.16,272.89 C955.82,265.06 940.00,273.83 940.00,288.49 C940.00,302.47 954.01,311.05 966.75,304.88 M 414.50,282.60 C410.19,280.70 407.91,277.72 407.31,273.24 C406.30,265.76 411.27,260.00 418.74,260.00 C422.21,260.00 423.73,260.64 426.68,263.35 C429.83,266.23 430.33,267.30 430.33,271.13 C430.33,276.78 427.96,280.40 422.92,282.42 C418.23,284.29 418.33,284.29 414.50,282.60 M 454.21,281.99 C450.00,280.10 447.00,275.71 447.00,271.43 C447.00,268.30 450.29,262.90 453.09,261.46 C464.07,255.77 475.39,267.28 469.05,277.69 C465.66,283.25 460.42,284.77 454.21,281.99 M 222.55,173.65 C222.18,161.47 222.02,132.38 222.19,109.00 L 222.50,66.50 L 508.45,66.25 C665.72,66.11 794.68,66.33 795.02,66.75 C795.72,67.59 794.67,193.68 793.96,194.35 C793.71,194.59 790.58,194.95 787.00,195.14 L 780.50,195.50 L 780.00,138.50 L 779.50,81.50 L 510.50,81.23 C362.55,81.08 240.49,81.20 239.26,81.49 L 237.02,82.03 L 236.76,138.76 L 236.50,195.49 L 229.86,195.65 L 223.22,195.80 L 222.55,173.65 M 950.00,288.57 L 950.00,276.00 L 956.50,276.00 C961.67,276.00 963.41,276.41 965.00,278.00 C967.52,280.52 967.57,285.08 965.10,288.12 C963.23,290.44 963.23,290.53 965.60,295.20 C968.53,300.99 968.54,301.00 965.73,301.00 C964.07,301.00 962.80,299.79 960.98,296.46 C959.15,293.11 957.98,292.00 956.50,292.21 C954.89,292.44 954.49,293.29 954.44,296.50 C954.39,299.83 954.01,300.55 952.19,300.82 C950.04,301.13 950.00,300.93 950.00,288.57 M 961.50,283.50 C961.50,280.74 961.22,280.50 958.01,280.50 C955.45,280.50 954.44,280.98 954.18,282.31 C953.52,285.72 954.81,287.15 958.24,286.81 C961.13,286.54 961.50,286.15 961.50,283.50 Z" fill="rgba(0,0,0,1)"/>
</g>
</svg>